# xmcd
#
# Track frame offsets:
# 182
# 16500
# 26217
# 39685
# 50715
# 67740
# 80145
# 95382
# 108380
# 125040
# 138140
# 149762
# 161870
#
# Disc length: 2290 seconds
#
# Revision: 0
# Processed by: cddbd v1.4PL0 Copyright (c) Steve Scherf et al.
# Submitted via: Audion 2.6.0 (http://www.panic.com/audion/)
#
DISCID=b808f00d
DTITLE=amandio cabral - tristalegria
DYEAR=1900
DGENRE=
TTITLE0=tristalegria
TTITLE1=nos oração
TTITLE2=remebering cabo verde
TTITLE3=xandinha
TTITLE4=nha iluzao
TTITLE5=marilena
TTITLE6=para que 
TTITLE7=a busca terminou
TTITLE8=momento magico
TTITLE9=your love is here
TTITLE10=mi sim bo amor
TTITLE11=um aflor para beijar
TTITLE12=cutch cutch
EXTD=
EXTT0=
EXTT1=
EXTT2=
EXTT3=
EXTT4=
EXTT5=
EXTT6=
EXTT7=
EXTT8=
EXTT9=
EXTT10=
EXTT11=
EXTT12=
PLAYORDER=
